<mxfile host="app.diagrams.net" agent="Mozilla/5.0 (Windows NT 10.0; Win64; x64) AppleWebKit/537.36 (KHTML, like Gecko) Chrome/136.0.0.0 Safari/537.36" version="27.0.5">
  <diagram name="Page-1" id="Edj6D4vppkLDYpnddNf1">
    <mxGraphModel dx="1500" dy="596" grid="0" gridSize="10" guides="1" tooltips="1" connect="1" arrows="1" fold="1" page="0" pageScale="1" pageWidth="850" pageHeight="1100" background="none" math="0" shadow="0">
      <root>
        <mxCell id="0" />
        <mxCell id="1" parent="0" />
        <mxCell id="o2yET6NaB_C4wVVpLFFw-1" value="" style="shape=umlBoundary;whiteSpace=wrap;html=1;" parent="1" vertex="1">
          <mxGeometry x="220" y="117" width="60" height="46" as="geometry" />
        </mxCell>
        <mxCell id="o2yET6NaB_C4wVVpLFFw-2" value="Tenant List" style="ellipse;shape=umlEntity;whiteSpace=wrap;html=1;" parent="1" vertex="1">
          <mxGeometry x="600" y="232" width="70" height="66" as="geometry" />
        </mxCell>
        <mxCell id="o2yET6NaB_C4wVVpLFFw-3" value="Display" style="ellipse;shape=umlControl;whiteSpace=wrap;html=1;" parent="1" vertex="1">
          <mxGeometry x="500" y="113" width="50" height="54" as="geometry" />
        </mxCell>
        <mxCell id="o2yET6NaB_C4wVVpLFFw-4" value="Manager" style="shape=umlActor;verticalLabelPosition=bottom;verticalAlign=top;html=1;" parent="1" vertex="1">
          <mxGeometry x="15" y="110" width="30" height="60" as="geometry" />
        </mxCell>
        <mxCell id="o2yET6NaB_C4wVVpLFFw-9" value="" style="line;strokeWidth=1;fillColor=none;align=left;verticalAlign=middle;spacingTop=-1;spacingLeft=3;spacingRight=3;rotatable=0;labelPosition=right;points=[];portConstraint=eastwest;strokeColor=inherit;" parent="1" vertex="1">
          <mxGeometry x="60" y="136" width="160" height="8" as="geometry" />
        </mxCell>
        <mxCell id="o2yET6NaB_C4wVVpLFFw-13" value="&lt;font style=&quot;font-size: 10px;&quot;&gt;selects &quot;Apartment/Tenant Edit&quot;&lt;/font&gt;" style="text;html=1;align=center;verticalAlign=middle;resizable=0;points=[];autosize=1;strokeColor=none;fillColor=none;" parent="1" vertex="1">
          <mxGeometry x="65" y="120" width="160" height="30" as="geometry" />
        </mxCell>
        <mxCell id="o2yET6NaB_C4wVVpLFFw-14" value="Manager Home Screen" style="text;html=1;align=center;verticalAlign=middle;resizable=0;points=[];autosize=1;strokeColor=none;fillColor=none;" parent="1" vertex="1">
          <mxGeometry x="185" y="90" width="150" height="30" as="geometry" />
        </mxCell>
        <mxCell id="o2yET6NaB_C4wVVpLFFw-16" value="" style="shape=umlBoundary;whiteSpace=wrap;html=1;" parent="1" vertex="1">
          <mxGeometry x="220" y="236" width="60" height="46" as="geometry" />
        </mxCell>
        <mxCell id="o2yET6NaB_C4wVVpLFFw-17" value="Tenant/Apartment&lt;div&gt;Manager Screen&lt;/div&gt;" style="text;html=1;align=center;verticalAlign=middle;resizable=0;points=[];autosize=1;strokeColor=none;fillColor=none;" parent="1" vertex="1">
          <mxGeometry x="200" y="196" width="120" height="40" as="geometry" />
        </mxCell>
        <mxCell id="o2yET6NaB_C4wVVpLFFw-20" value="" style="endArrow=none;html=1;rounded=0;exitX=-0.022;exitY=0.518;exitDx=0;exitDy=0;exitPerimeter=0;entryX=0.002;entryY=0.512;entryDx=0;entryDy=0;entryPerimeter=0;" parent="1" source="o2yET6NaB_C4wVVpLFFw-16" target="o2yET6NaB_C4wVVpLFFw-9" edge="1">
          <mxGeometry width="50" height="50" relative="1" as="geometry">
            <mxPoint x="490" y="236" as="sourcePoint" />
            <mxPoint x="70" y="140" as="targetPoint" />
          </mxGeometry>
        </mxCell>
        <mxCell id="o2yET6NaB_C4wVVpLFFw-21" value="&lt;font style=&quot;font-size: 10px;&quot;&gt;selects &quot;Remove&quot;&lt;/font&gt;" style="text;html=1;align=center;verticalAlign=middle;resizable=0;points=[];autosize=1;strokeColor=none;fillColor=none;rotation=37;" parent="1" vertex="1">
          <mxGeometry x="100" y="184" width="100" height="30" as="geometry" />
        </mxCell>
        <mxCell id="o2yET6NaB_C4wVVpLFFw-24" value="Load" style="ellipse;shape=umlControl;whiteSpace=wrap;html=1;" parent="1" vertex="1">
          <mxGeometry x="440" y="227" width="60" height="64" as="geometry" />
        </mxCell>
        <mxCell id="4zSn7JIIVfaxJaeZ2S0K-1" value="" style="shape=umlBoundary;whiteSpace=wrap;html=1;" parent="1" vertex="1">
          <mxGeometry x="220" y="340" width="60" height="46" as="geometry" />
        </mxCell>
        <mxCell id="4zSn7JIIVfaxJaeZ2S0K-2" value="Tenant List Screen" style="text;html=1;align=center;verticalAlign=middle;resizable=0;points=[];autosize=1;strokeColor=none;fillColor=none;" parent="1" vertex="1">
          <mxGeometry x="200" y="316" width="120" height="30" as="geometry" />
        </mxCell>
        <mxCell id="4zSn7JIIVfaxJaeZ2S0K-4" value="" style="endArrow=none;html=1;rounded=0;entryX=0;entryY=0.451;entryDx=0;entryDy=0;exitX=1.002;exitY=0.518;exitDx=0;exitDy=0;exitPerimeter=0;entryPerimeter=0;" parent="1" source="o2yET6NaB_C4wVVpLFFw-24" target="o2yET6NaB_C4wVVpLFFw-2" edge="1">
          <mxGeometry width="50" height="50" relative="1" as="geometry">
            <mxPoint x="301" y="279" as="sourcePoint" />
            <mxPoint x="526" y="179" as="targetPoint" />
          </mxGeometry>
        </mxCell>
        <mxCell id="4zSn7JIIVfaxJaeZ2S0K-6" value="Display" style="ellipse;shape=umlControl;whiteSpace=wrap;html=1;" parent="1" vertex="1">
          <mxGeometry x="365" y="316" width="50" height="54" as="geometry" />
        </mxCell>
        <mxCell id="4zSn7JIIVfaxJaeZ2S0K-10" value="" style="endArrow=none;html=1;rounded=0;exitX=0.006;exitY=0.558;exitDx=0;exitDy=0;exitPerimeter=0;" parent="1" source="4zSn7JIIVfaxJaeZ2S0K-1" edge="1">
          <mxGeometry width="50" height="50" relative="1" as="geometry">
            <mxPoint x="500" y="327" as="sourcePoint" />
            <mxPoint x="60" y="140" as="targetPoint" />
          </mxGeometry>
        </mxCell>
        <mxCell id="4zSn7JIIVfaxJaeZ2S0K-11" value="&lt;div&gt;&lt;br&gt;&lt;/div&gt;&lt;div&gt;&lt;br&gt;&lt;/div&gt;" style="edgeLabel;html=1;align=center;verticalAlign=middle;resizable=0;points=[];" parent="4zSn7JIIVfaxJaeZ2S0K-10" vertex="1" connectable="0">
          <mxGeometry x="0.4239" y="-3" relative="1" as="geometry">
            <mxPoint as="offset" />
          </mxGeometry>
        </mxCell>
        <mxCell id="4zSn7JIIVfaxJaeZ2S0K-12" value="&lt;font style=&quot;font-size: 9px;&quot;&gt;selects Tenant and confirms&lt;/font&gt;" style="text;html=1;align=center;verticalAlign=middle;resizable=0;points=[];autosize=1;strokeColor=none;fillColor=none;rotation=54;" parent="1" vertex="1">
          <mxGeometry x="91" y="252" width="129" height="26" as="geometry" />
        </mxCell>
        <mxCell id="4zSn7JIIVfaxJaeZ2S0K-35" value="Delete" style="ellipse;shape=umlControl;whiteSpace=wrap;html=1;" parent="1" vertex="1">
          <mxGeometry x="400" y="400" width="50" height="54" as="geometry" />
        </mxCell>
        <mxCell id="4zSn7JIIVfaxJaeZ2S0K-38" value="" style="shape=umlBoundary;whiteSpace=wrap;html=1;" parent="1" vertex="1">
          <mxGeometry x="220" y="466" width="60" height="44" as="geometry" />
        </mxCell>
        <mxCell id="4zSn7JIIVfaxJaeZ2S0K-40" value="Add Tenant Screen" style="text;align=center;verticalAlign=middle;resizable=0;points=[];autosize=1;strokeColor=none;fillColor=none;flipV=1;html=1;" parent="1" vertex="1">
          <mxGeometry x="205" y="436" width="130" height="30" as="geometry" />
        </mxCell>
        <mxCell id="4zSn7JIIVfaxJaeZ2S0K-45" value="" style="endArrow=none;html=1;rounded=0;exitX=0.009;exitY=0.593;exitDx=0;exitDy=0;exitPerimeter=0;" parent="1" source="4zSn7JIIVfaxJaeZ2S0K-38" edge="1">
          <mxGeometry width="50" height="50" relative="1" as="geometry">
            <mxPoint x="201" y="757" as="sourcePoint" />
            <mxPoint x="60" y="140" as="targetPoint" />
          </mxGeometry>
        </mxCell>
        <mxCell id="4zSn7JIIVfaxJaeZ2S0K-44" value="&lt;font style=&quot;font-size: 10px;&quot;&gt;fills form and confirms&lt;/font&gt;" style="text;html=1;align=center;verticalAlign=middle;resizable=0;points=[];autosize=1;strokeColor=none;fillColor=none;rotation=65;" parent="1" vertex="1">
          <mxGeometry x="95" y="316" width="120" height="30" as="geometry" />
        </mxCell>
        <mxCell id="4zSn7JIIVfaxJaeZ2S0K-49" value="Information&lt;div&gt;Check&lt;/div&gt;" style="ellipse;shape=umlControl;whiteSpace=wrap;html=1;" parent="1" vertex="1">
          <mxGeometry x="380" y="530" width="60" height="60" as="geometry" />
        </mxCell>
        <mxCell id="4zSn7JIIVfaxJaeZ2S0K-58" value="Correct" style="text;html=1;align=center;verticalAlign=middle;resizable=0;points=[];autosize=1;strokeColor=none;fillColor=none;" parent="1" vertex="1">
          <mxGeometry x="485" y="545" width="60" height="30" as="geometry" />
        </mxCell>
        <mxCell id="4zSn7JIIVfaxJaeZ2S0K-59" value="Add" style="ellipse;shape=umlControl;whiteSpace=wrap;html=1;" parent="1" vertex="1">
          <mxGeometry x="565" y="535" width="45" height="50" as="geometry" />
        </mxCell>
        <mxCell id="4zSn7JIIVfaxJaeZ2S0K-64" value="&lt;font style=&quot;color: light-dark(rgb(0, 0, 0), rgb(255, 0, 0));&quot;&gt;Wrong&lt;/font&gt;" style="text;html=1;align=center;verticalAlign=middle;resizable=0;points=[];autosize=1;strokeColor=none;fillColor=none;" parent="1" vertex="1">
          <mxGeometry x="405" y="595" width="60" height="30" as="geometry" />
        </mxCell>
        <mxCell id="2ANkcWensxIjMgZrlnyL-3" value="" style="endArrow=none;html=1;rounded=0;entryX=0.606;entryY=0.995;entryDx=0;entryDy=0;entryPerimeter=0;exitX=0.445;exitY=0.164;exitDx=0;exitDy=0;exitPerimeter=0;fillColor=light-dark(transparent,#FF0000);strokeColor=light-dark(#FF3333,#FF0000);textShadow=0;labelBackgroundColor=#FF3333;labelBorderColor=none;fontColor=#FF3333;" parent="1" source="2ANkcWensxIjMgZrlnyL-4" target="4zSn7JIIVfaxJaeZ2S0K-49" edge="1">
          <mxGeometry width="50" height="50" relative="1" as="geometry">
            <mxPoint x="476" y="830" as="sourcePoint" />
            <mxPoint x="269" y="752" as="targetPoint" />
          </mxGeometry>
        </mxCell>
        <mxCell id="2ANkcWensxIjMgZrlnyL-4" value="find owner" style="ellipse;shape=umlControl;whiteSpace=wrap;html=1;strokeColor=light-dark(#FF3333,#FF3333);" parent="1" vertex="1">
          <mxGeometry x="400" y="648" width="40" height="50" as="geometry" />
        </mxCell>
        <mxCell id="2ANkcWensxIjMgZrlnyL-9" value="" style="endArrow=none;html=1;rounded=0;exitX=1.017;exitY=0.487;exitDx=0;exitDy=0;exitPerimeter=0;entryX=-0.021;entryY=0.515;entryDx=0;entryDy=0;entryPerimeter=0;" parent="1" source="o2yET6NaB_C4wVVpLFFw-1" target="o2yET6NaB_C4wVVpLFFw-3" edge="1">
          <mxGeometry width="50" height="50" relative="1" as="geometry">
            <mxPoint x="440" y="280" as="sourcePoint" />
            <mxPoint x="490" y="230" as="targetPoint" />
          </mxGeometry>
        </mxCell>
        <mxCell id="2ANkcWensxIjMgZrlnyL-10" value="" style="endArrow=none;html=1;rounded=0;exitX=0.994;exitY=0.464;exitDx=0;exitDy=0;exitPerimeter=0;entryX=0.02;entryY=0.745;entryDx=0;entryDy=0;entryPerimeter=0;" parent="1" source="o2yET6NaB_C4wVVpLFFw-16" target="o2yET6NaB_C4wVVpLFFw-3" edge="1">
          <mxGeometry width="50" height="50" relative="1" as="geometry">
            <mxPoint x="440" y="280" as="sourcePoint" />
            <mxPoint x="490" y="230" as="targetPoint" />
          </mxGeometry>
        </mxCell>
        <mxCell id="2ANkcWensxIjMgZrlnyL-11" value="" style="endArrow=none;html=1;rounded=0;exitX=1.023;exitY=0.507;exitDx=0;exitDy=0;exitPerimeter=0;entryX=0.002;entryY=0.512;entryDx=0;entryDy=0;entryPerimeter=0;" parent="1" source="o2yET6NaB_C4wVVpLFFw-16" target="o2yET6NaB_C4wVVpLFFw-24" edge="1">
          <mxGeometry width="50" height="50" relative="1" as="geometry">
            <mxPoint x="430" y="300" as="sourcePoint" />
            <mxPoint x="480" y="250" as="targetPoint" />
          </mxGeometry>
        </mxCell>
        <mxCell id="2ANkcWensxIjMgZrlnyL-12" value="" style="endArrow=none;html=1;rounded=0;exitX=0.841;exitY=0.236;exitDx=0;exitDy=0;exitPerimeter=0;entryX=0.114;entryY=0.831;entryDx=0;entryDy=0;entryPerimeter=0;" parent="1" source="4zSn7JIIVfaxJaeZ2S0K-6" target="o2yET6NaB_C4wVVpLFFw-24" edge="1">
          <mxGeometry width="50" height="50" relative="1" as="geometry">
            <mxPoint x="490" y="370" as="sourcePoint" />
            <mxPoint x="540" y="320" as="targetPoint" />
          </mxGeometry>
        </mxCell>
        <mxCell id="2ANkcWensxIjMgZrlnyL-13" value="" style="endArrow=none;html=1;rounded=0;exitX=1.005;exitY=0.463;exitDx=0;exitDy=0;exitPerimeter=0;entryX=0.102;entryY=0.829;entryDx=0;entryDy=0;entryPerimeter=0;" parent="1" source="4zSn7JIIVfaxJaeZ2S0K-1" target="4zSn7JIIVfaxJaeZ2S0K-6" edge="1">
          <mxGeometry width="50" height="50" relative="1" as="geometry">
            <mxPoint x="400" y="440" as="sourcePoint" />
            <mxPoint x="450" y="390" as="targetPoint" />
          </mxGeometry>
        </mxCell>
        <mxCell id="2ANkcWensxIjMgZrlnyL-14" value="" style="endArrow=none;html=1;rounded=0;entryX=0.939;entryY=0.772;entryDx=0;entryDy=0;entryPerimeter=0;exitX=0.039;exitY=0.445;exitDx=0;exitDy=0;exitPerimeter=0;" parent="1" source="4zSn7JIIVfaxJaeZ2S0K-35" target="4zSn7JIIVfaxJaeZ2S0K-1" edge="1">
          <mxGeometry width="50" height="50" relative="1" as="geometry">
            <mxPoint x="390" y="540" as="sourcePoint" />
            <mxPoint x="440" y="490" as="targetPoint" />
          </mxGeometry>
        </mxCell>
        <mxCell id="2ANkcWensxIjMgZrlnyL-15" value="" style="endArrow=none;html=1;rounded=0;exitX=0.868;exitY=0.264;exitDx=0;exitDy=0;exitPerimeter=0;entryX=0;entryY=1;entryDx=0;entryDy=0;" parent="1" source="4zSn7JIIVfaxJaeZ2S0K-35" target="o2yET6NaB_C4wVVpLFFw-2" edge="1">
          <mxGeometry width="50" height="50" relative="1" as="geometry">
            <mxPoint x="490" y="490" as="sourcePoint" />
            <mxPoint x="660" y="330" as="targetPoint" />
          </mxGeometry>
        </mxCell>
        <mxCell id="2ANkcWensxIjMgZrlnyL-16" value="" style="endArrow=none;html=1;rounded=0;entryX=0.985;entryY=0.678;entryDx=0;entryDy=0;entryPerimeter=0;exitX=0.166;exitY=0.234;exitDx=0;exitDy=0;exitPerimeter=0;" parent="1" source="HqgW8fJstFr-JOV3Mw9H-3" target="4zSn7JIIVfaxJaeZ2S0K-35" edge="1">
          <mxGeometry width="50" height="50" relative="1" as="geometry">
            <mxPoint x="610" y="439.68000000000006" as="sourcePoint" />
            <mxPoint x="440" y="570" as="targetPoint" />
          </mxGeometry>
        </mxCell>
        <mxCell id="2ANkcWensxIjMgZrlnyL-17" value="" style="endArrow=none;html=1;rounded=0;exitX=0.976;exitY=0.312;exitDx=0;exitDy=0;exitPerimeter=0;entryX=0.099;entryY=0.829;entryDx=0;entryDy=0;entryPerimeter=0;" parent="1" source="4zSn7JIIVfaxJaeZ2S0K-38" target="HqgW8fJstFr-JOV3Mw9H-3" edge="1">
          <mxGeometry width="50" height="50" relative="1" as="geometry">
            <mxPoint x="390" y="710" as="sourcePoint" />
            <mxPoint x="610" y="460" as="targetPoint" />
          </mxGeometry>
        </mxCell>
        <mxCell id="2ANkcWensxIjMgZrlnyL-18" value="" style="endArrow=none;html=1;rounded=0;exitX=0.937;exitY=0.777;exitDx=0;exitDy=0;exitPerimeter=0;entryX=0.012;entryY=0.544;entryDx=0;entryDy=0;entryPerimeter=0;" parent="1" source="4zSn7JIIVfaxJaeZ2S0K-38" target="4zSn7JIIVfaxJaeZ2S0K-49" edge="1">
          <mxGeometry width="50" height="50" relative="1" as="geometry">
            <mxPoint x="395.12000000000035" y="616.3599999999999" as="sourcePoint" />
            <mxPoint x="490" y="740" as="targetPoint" />
            <Array as="points">
              <mxPoint x="340" y="540" />
            </Array>
          </mxGeometry>
        </mxCell>
        <mxCell id="2ANkcWensxIjMgZrlnyL-19" value="" style="endArrow=none;html=1;rounded=0;exitX=0.987;exitY=0.605;exitDx=0;exitDy=0;exitPerimeter=0;entryX=0.012;entryY=0.613;entryDx=0;entryDy=0;entryPerimeter=0;" parent="1" source="4zSn7JIIVfaxJaeZ2S0K-49" target="4zSn7JIIVfaxJaeZ2S0K-59" edge="1">
          <mxGeometry width="50" height="50" relative="1" as="geometry">
            <mxPoint x="590" y="790" as="sourcePoint" />
            <mxPoint x="640" y="740" as="targetPoint" />
          </mxGeometry>
        </mxCell>
        <mxCell id="2ANkcWensxIjMgZrlnyL-20" value="" style="endArrow=none;html=1;rounded=0;exitX=0.986;exitY=0.65;exitDx=0;exitDy=0;exitPerimeter=0;entryX=1;entryY=0.5;entryDx=0;entryDy=0;" parent="1" source="4zSn7JIIVfaxJaeZ2S0K-59" target="o2yET6NaB_C4wVVpLFFw-2" edge="1">
          <mxGeometry width="50" height="50" relative="1" as="geometry">
            <mxPoint x="800" y="530" as="sourcePoint" />
            <mxPoint x="850" y="480" as="targetPoint" />
            <Array as="points">
              <mxPoint x="760" y="570" />
              <mxPoint x="760" y="265" />
            </Array>
          </mxGeometry>
        </mxCell>
        <mxCell id="HqgW8fJstFr-JOV3Mw9H-3" value="Display" style="ellipse;shape=umlControl;whiteSpace=wrap;html=1;" parent="1" vertex="1">
          <mxGeometry x="610" y="436" width="50" height="54" as="geometry" />
        </mxCell>
        <mxCell id="HqgW8fJstFr-JOV3Mw9H-4" value="Apartment List" style="ellipse;shape=umlEntity;whiteSpace=wrap;html=1;" parent="1" vertex="1">
          <mxGeometry x="780" y="640" width="70" height="66" as="geometry" />
        </mxCell>
        <mxCell id="HqgW8fJstFr-JOV3Mw9H-5" value="" style="endArrow=none;html=1;rounded=0;exitX=0.976;exitY=0.312;exitDx=0;exitDy=0;exitPerimeter=0;entryX=-0.006;entryY=0.507;entryDx=0;entryDy=0;entryPerimeter=0;fontColor=#FF0808;labelBackgroundColor=#FF0808;strokeColor=#FF0808;" parent="1" target="HqgW8fJstFr-JOV3Mw9H-4" edge="1">
          <mxGeometry width="50" height="50" relative="1" as="geometry">
            <mxPoint x="440" y="672.41" as="sourcePoint" />
            <mxPoint x="776" y="673.41" as="targetPoint" />
          </mxGeometry>
        </mxCell>
        <mxCell id="HqgW8fJstFr-JOV3Mw9H-6" value="" style="endArrow=none;html=1;rounded=0;entryX=0.132;entryY=0.866;entryDx=0;entryDy=0;entryPerimeter=0;exitX=0.881;exitY=0.274;exitDx=0;exitDy=0;exitPerimeter=0;fillColor=light-dark(transparent,#FF0000);strokeColor=light-dark(#FF3333,#FF0000);textShadow=0;labelBackgroundColor=#FF3333;labelBorderColor=none;fontColor=#FF3333;" parent="1" source="2ANkcWensxIjMgZrlnyL-4" target="4zSn7JIIVfaxJaeZ2S0K-59" edge="1">
          <mxGeometry width="50" height="50" relative="1" as="geometry">
            <mxPoint x="428" y="666" as="sourcePoint" />
            <mxPoint x="426" y="600" as="targetPoint" />
          </mxGeometry>
        </mxCell>
      </root>
    </mxGraphModel>
  </diagram>
</mxfile>
